<svg t="1737704599889" class="icon" viewBox="0 0 1024 1024" version="1.1" xmlns="http://www.w3.org/2000/svg" p-id="7271" width="32" height="32"><path d="M506.538667 525.312m-426.837334 0a426.837333 426.837333 0 1 0 853.674667 0 426.837333 426.837333 0 1 0-853.674667 0Z" fill="#d81e06" p-id="7272" data-spm-anchor-id="a313x.search_index.0.i2.3eb73a814xWGrw" class="selected"></path><path d="M506.538667 525.312m-342.869334 0a342.869333 342.869333 0 1 0 685.738667 0 342.869333 342.869333 0 1 0-685.738667 0Z" fill="#FC4132" p-id="7273"></path><path d="M775.850667 510.634667c0 148.821333-120.661333 269.312-269.312 269.312S237.226667 659.285333 237.226667 510.634667c0-55.637333 8.021333-124.928 37.034666-169.472 48.469333-74.410667 139.264-109.226667 232.277334-109.226667 148.821333 0 269.312 129.877333 269.312 278.698667z" fill="#FF764D" p-id="7274"></path><path d="M506.538667 83.797333C262.997333 83.797333 64.853333 281.941333 64.853333 525.312s198.144 441.685333 441.685334 441.685333 441.685333-198.144 441.685333-441.685333S750.08 83.797333 506.538667 83.797333z m0 853.674667C279.381333 937.472 94.549333 752.64 94.549333 525.312S279.381333 113.322667 506.538667 113.322667s411.989333 184.832 411.989333 411.989333-184.832 412.16-411.989333 412.16z" fill="#572C00" p-id="7275"></path><path d="M506.538667 167.765333c-197.290667 0-357.717333 160.426667-357.717334 357.717334s160.426667 357.717333 357.717334 357.717333 357.717333-160.426667 357.717333-357.717333-160.426667-357.717333-357.717333-357.717334z m299.178666 492.032h-147.285333V410.112H810.666667c1.024 0 1.877333-0.341333 2.730666-0.512 13.653333 36.010667 21.162667 75.093333 21.162667 115.882667 0 47.786667-10.410667 93.354667-28.842667 134.314666z m-175.786666 0H384V410.112h245.930667v249.685333z m171.008-279.04h-142.506667v-145.92c61.610667 32.256 111.616 83.456 142.506667 145.92z m-171.008-159.232v159.232H384v-159.573333c37.888-15.36 79.189333-23.893333 122.538667-23.893333 43.690667 0 85.333333 8.704 123.392 24.234666z m-274.432 12.8v146.432h-143.36c31.061333-62.805333 81.408-114.176 143.36-146.432z m-155.648 174.933334c1.194667 0.341333 2.389333 0.682667 3.584 0.682666h152.234666v249.685334h-146.944c-0.341333 0-0.682667 0.170667-1.024 0.170666-18.602667-41.130667-29.013333-86.698667-29.013333-134.656-0.170667-40.618667 7.338667-79.701333 21.162667-115.882666z m22.528 279.893333h133.12v127.317333c-55.466667-29.013333-101.717333-73.216-133.12-127.317333z m161.621333 140.458667v-140.629334h245.930667v140.117334c-38.058667 15.530667-79.701333 24.234667-123.392 24.234666-43.349333 0.170667-84.650667-8.362667-122.538667-23.722666z m274.432-13.653334v-126.976h132.096c-30.890667 53.930667-76.8 98.133333-132.096 126.976z" fill="#572C00" p-id="7276"></path><path d="M522.24 268.970667m-37.034667 0a37.034667 37.034667 0 1 0 74.069334 0 37.034667 37.034667 0 1 0-74.069334 0Z" fill="#7EC13C" p-id="7277"></path><path d="M522.24 317.098667c-26.624 0-48.128-21.674667-48.128-48.128s21.674667-48.128 48.128-48.128 48.128 21.674667 48.128 48.128-21.504 48.128-48.128 48.128z m0-74.069334c-14.336 0-25.941333 11.605333-25.941333 25.941334 0 14.336 11.605333 25.941333 25.941333 25.941333s25.941333-11.605333 25.941333-25.941333c0-14.336-11.605333-25.941333-25.941333-25.941334z" fill="#572C00" p-id="7278"></path><path d="M737.109333 546.645333m-27.818666 0a27.818667 27.818667 0 1 0 55.637333 0 27.818667 27.818667 0 1 0-55.637333 0Z" fill="#572C00" p-id="7279"></path><path d="M563.029333 627.2c-23.04 0-41.642667-18.773333-41.642666-41.642667 0-23.04 18.773333-41.642667 41.642666-41.642666 23.04 0 41.642667 18.773333 41.642667 41.642666 0 23.04-18.602667 41.642667-41.642667 41.642667z m0-61.098667c-10.752 0-19.456 8.704-19.456 19.456s8.704 19.456 19.456 19.456 19.456-8.704 19.456-19.456-8.704-19.456-19.456-19.456z" fill="#572C00" p-id="7280"></path><path d="M463.018667 474.453333m-43.52 0a43.52 43.52 0 1 0 87.04 0 43.52 43.52 0 1 0-87.04 0Z" fill="#7EC13C" p-id="7281"></path><path d="M463.018667 529.066667c-30.037333 0-54.613333-24.576-54.613334-54.613334s24.576-54.613333 54.613334-54.613333 54.613333 24.576 54.613333 54.613333-24.405333 54.613333-54.613333 54.613334z m0-87.04c-17.92 0-32.426667 14.506667-32.426667 32.426666s14.506667 32.426667 32.426667 32.426667 32.426667-14.506667 32.426666-32.426667-14.506667-32.426667-32.426666-32.426666z" fill="#572C00" p-id="7282"></path><path d="M248.32 500.394667m-25.941333 0a25.941333 25.941333 0 1 0 51.882666 0 25.941333 25.941333 0 1 0-51.882666 0Z" fill="#572C00" p-id="7283"></path><path d="M436.224 742.058667m-24.917333 0a24.917333 24.917333 0 1 0 49.834666 0 24.917333 24.917333 0 1 0-49.834666 0Z" fill="#572C00" p-id="7284"></path><path d="M548.181333 751.616c-6.144 0-11.946667-3.925333-13.994666-10.24l-3.754667-11.264c-2.56-7.850667 1.706667-16.213333 9.386667-18.773333s16.213333 1.706667 18.773333 9.386666l3.754667 11.264c2.56 7.850667-1.706667 16.213333-9.386667 18.773334-1.706667 0.512-3.242667 0.853333-4.778667 0.853333z" fill="#FC4132" p-id="7285"></path><path d="M758.613333 501.077333h-0.512c-4.096-0.341333-7.168-3.754667-6.826666-7.850666l0.682666-9.045334c0.341333-4.096 3.925333-7.168 7.850667-6.826666 4.096 0.341333 7.168 3.754667 6.826667 7.850666l-0.682667 9.045334c-0.341333 3.925333-3.584 6.826667-7.338667 6.826666zM284.501333 745.472c-0.853333 0-1.877333-0.170667-2.730666-0.341333-8.021333-1.536-13.312-9.216-11.776-17.237334l2.389333-12.288c1.536-8.021333 9.216-13.312 17.237333-11.776 8.021333 1.536 13.312 9.216 11.776 17.237334l-2.389333 12.288c-1.365333 7.168-7.509333 12.117333-14.506667 12.117333z" fill="#7EC13C" p-id="7286"></path><path d="M286.378667 592.042667c-11.264 0-20.992-8.533333-22.016-20.138667l-2.389334-23.722667c-1.194667-12.288 7.68-23.04 19.968-24.234666 12.117333-1.194667 23.04 7.68 24.234667 19.968l2.389333 23.722666c1.194667 12.288-7.68 23.04-19.968 24.234667-0.682667 0.170667-1.536 0.170667-2.218666 0.170667z" fill="#FC4132" p-id="7287"></path></svg>
